# xmcd
#
# Track frame offsets: 
#        150
#        16656
#        34608
#        55728
#        72757
#        96361
#        117059
#        132822
#        149304
#        166019
#        190438
#        211466
#        230354
#        247694
#        266014
#
# Disc length: 3804 seconds
#
# Revision: 0
# Processed by: cddbd v1.5.2PL0 Copyright (c) Steve Scherf et al.
# Submitted via: ExactAudioCopy v1.3
#
DISCID=c20eda0f
DTITLE=Mick Clarke - Best Of The 90s
DYEAR=2019
DGENRE=Electric Blues
TTITLE0=The Killingest Place
TTITLE1=Bear With Me
TTITLE2=Talking With The Blues
TTITLE3=Blue Eyed Blues
TTITLE4=Pack My Bag
TTITLE5=Backseat Blues
TTITLE6=Produce Row
TTITLE7=Celebration
TTITLE8=Limousine
TTITLE9=One Horse Town
TTITLE10=Journey
TTITLE11=She Moves Me
TTITLE12=My Own Time
TTITLE13=Down In The Bottom
TTITLE14=Roll Again
EXTD=
EXTT0=
EXTT1=
EXTT2=
EXTT3=
EXTT4=
EXTT5=
EXTT6=
EXTT7=
EXTT8=
EXTT9=
EXTT10=
EXTT11=
EXTT12=
EXTT13=
EXTT14=
PLAYORDER=
